<svg width="160" height="39" fill="none" xmlns="http://www.w3.org/2000/svg" xmlns:xlink="http://www.w3.org/1999/xlink"><path fill="url(#pattern0_whatsapp_desktop_logo)" d="M42.25 9.427H160V34.01H42.25z"/><path d="M59.885 22.605h-.055l-3.013-12.217H53.2l-3.05 12.07h-.055l-2.792-12.052h-3.876l4.666 17.726h3.913l2.939-12.051H55l2.976 12.05h3.839l4.74-17.725H62.75l-2.866 12.2zm18.48-6.21c-.349-.462-.826-.813-1.414-1.072-.607-.259-1.378-.388-2.297-.388-.66 0-1.322.166-2.02.517-.698.333-1.25.887-1.709 1.627h-.073v-6.673h-3.509v17.726h3.509v-6.728c0-1.313.22-2.237.643-2.81.422-.573 1.12-.85 2.076-.85.845 0 1.414.259 1.745.776.33.518.496 1.313.496 2.366v7.246h3.508v-7.893a11.1 11.1 0 00-.202-2.162c-.165-.666-.404-1.22-.753-1.682zm14.42 8.872v-6.673c0-.776-.165-1.404-.514-1.867-.35-.48-.79-.831-1.323-1.109a6.192 6.192 0 00-1.8-.536 13.97 13.97 0 00-1.947-.129c-.698 0-1.415.074-2.113.203-.698.148-1.322.37-1.892.703a4.264 4.264 0 00-1.377 1.312c-.368.555-.57 1.239-.625 2.052h3.509c.073-.703.293-1.183.698-1.497.385-.296.937-.444 1.635-.444.312 0 .606.018.881.055.276.037.515.13.717.24.202.13.367.296.496.518.128.222.183.518.183.906.019.37-.091.647-.312.832a2.45 2.45 0 01-.937.425c-.385.092-.845.166-1.36.222-.513.055-1.028.11-1.56.203-.533.074-1.048.203-1.562.333a4.7 4.7 0 00-1.378.628c-.404.277-.734.666-.992 1.128-.257.48-.385 1.072-.385 1.793 0 .665.11 1.238.33 1.718.22.481.533.87.919 1.183.386.315.863.555 1.378.703a6.265 6.265 0 001.708.221c.79 0 1.561-.11 2.314-.35.754-.24 1.415-.63 1.966-1.22.018.221.037.425.092.628.037.203.092.407.165.61h3.546c-.166-.259-.276-.666-.35-1.183a10.87 10.87 0 01-.11-1.608zm-3.49-2.107c0 .203-.018.462-.055.794a2.48 2.48 0 01-.33.98c-.184.314-.46.592-.846.832-.385.24-.918.351-1.598.351-.275 0-.551-.018-.808-.074a2.103 2.103 0 01-.698-.259 1.438 1.438 0 01-.478-.517 1.75 1.75 0 01-.165-.795c0-.333.055-.61.165-.813.11-.222.276-.388.46-.536a1.86 1.86 0 01.66-.333c.258-.074.515-.148.772-.203.276-.056.551-.093.845-.13.276-.037.551-.074.809-.129.257-.055.495-.11.716-.185a1.6 1.6 0 00.551-.314v1.33zm10.03-11.719h-3.509v3.845h-2.112v2.366h2.112v7.56c0 .646.11 1.164.313 1.57a2.5 2.5 0 00.881.925c.368.221.79.35 1.286.425.478.074.992.11 1.543.11.349 0 .698 0 1.066-.018.367-.018.698-.055.992-.092v-2.736a4.325 4.325 0 01-.515.074c-.183.019-.367.019-.569.019-.588 0-.992-.093-1.176-.296-.202-.203-.294-.592-.294-1.183v-6.358h2.572v-2.366h-2.572V11.44h-.018zM113.8 22.494a3.243 3.243 0 00-.918-1.016 5.009 5.009 0 00-1.286-.666 17.601 17.601 0 00-1.488-.425c-.496-.11-.974-.222-1.451-.314a8.976 8.976 0 01-1.268-.333c-.367-.13-.661-.277-.9-.48a.966.966 0 01-.349-.777c0-.258.055-.48.202-.628a1.29 1.29 0 01.478-.351c.183-.074.404-.13.624-.167.239-.018.441-.037.643-.037.625 0 1.176.111 1.635.352.459.24.717.702.772 1.367h3.325c-.074-.794-.276-1.441-.607-1.977a3.927 3.927 0 00-1.267-1.257 5.202 5.202 0 00-1.745-.666 10.23 10.23 0 00-2.003-.203c-.698 0-1.359.056-2.02.185-.662.13-1.249.333-1.782.647a3.45 3.45 0 00-1.268 1.257c-.312.536-.477 1.201-.477 2.033 0 .554.11 1.035.349 1.423.22.388.533.703.918.961.386.26.809.462 1.305.629.477.166.973.296 1.488.406 1.249.26 2.222.536 2.92.795s1.047.666 1.047 1.183c0 .314-.073.573-.22.776-.147.204-.331.37-.551.5a2.554 2.554 0 01-.735.277 3.974 3.974 0 01-.771.092c-.35 0-.68-.037-.992-.13a2.206 2.206 0 01-.845-.387 2.125 2.125 0 01-.607-.666 2.03 2.03 0 01-.238-.98h-3.325c.036.87.22 1.572.587 2.145a4.253 4.253 0 001.36 1.386c.551.351 1.175.591 1.892.74a10.52 10.52 0 002.168.221c.716 0 1.432-.074 2.13-.203.698-.148 1.323-.388 1.856-.74.551-.35.973-.813 1.322-1.367.331-.573.496-1.276.496-2.126-.073-.573-.183-1.072-.404-1.479zm6.944-12.088l-6.65 17.726h3.895l1.377-3.937h6.577l1.322 3.937h4.023l-6.576-17.726h-3.968zm-.367 10.868l2.296-6.506h.055l2.223 6.506h-4.574zm23.035-4.25a5.529 5.529 0 00-1.8-1.516c-.716-.389-1.58-.573-2.59-.573-.79 0-1.507.147-2.168.462-.661.314-1.194.813-1.635 1.515h-.055v-1.645h-3.325v17.32h3.509v-6.082h.055a4.05 4.05 0 001.635 1.424c.661.314 1.396.48 2.186.48.937 0 1.763-.185 2.461-.554a5.187 5.187 0 001.746-1.46c.477-.61.808-1.313 1.047-2.108.22-.795.349-1.626.349-2.477a9.65 9.65 0 00-.349-2.624 7.203 7.203 0 00-1.066-2.163zm-2.259 6.228a3.536 3.536 0 01-.515 1.294c-.238.37-.551.684-.937.906-.385.24-.863.35-1.432.35-.551 0-1.029-.11-1.433-.35a2.648 2.648 0 01-.955-.906c-.239-.37-.405-.813-.515-1.294a6.98 6.98 0 01-.165-1.515c0-.536.055-1.036.147-1.535.092-.499.275-.942.514-1.312.239-.388.551-.684.937-.924s.863-.37 1.433-.37c.551 0 1.029.13 1.414.37.386.24.698.554.956.942.238.389.422.832.532 1.331.111.5.166.998.166 1.516 0 .499-.037.998-.147 1.497zm17.267-4.03c-.239-.831-.588-1.57-1.065-2.199a5.539 5.539 0 00-1.8-1.515c-.717-.389-1.58-.573-2.591-.573-.79 0-1.506.147-2.167.462-.662.314-1.194.813-1.635 1.515h-.055v-1.645h-3.325v17.32h3.508v-6.082h.056a4.047 4.047 0 001.634 1.424 5.06 5.06 0 002.186.48c.937 0 1.746-.185 2.462-.554a5.174 5.174 0 001.745-1.46 5.947 5.947 0 001.047-2.108 8.578 8.578 0 00.349-2.477c0-.887-.128-1.755-.349-2.587zm-3.306 4.03a3.885 3.885 0 01-.496 1.294c-.239.37-.551.684-.937.906-.386.24-.864.35-1.433.35-.551 0-1.029-.11-1.433-.35a2.656 2.656 0 01-.955-.906c-.239-.37-.404-.813-.514-1.294a6.92 6.92 0 01-.166-1.515c0-.536.055-1.036.147-1.535a3.63 3.63 0 01.515-1.312c.238-.388.551-.684.936-.924.386-.24.864-.37 1.452-.37.551 0 1.028.13 1.414.37.386.24.698.554.955.942.239.389.423.832.533 1.331.11.5.165.998.165 1.516-.036.499-.092.998-.183 1.497z" fill="#fff"/><path fill="url(#pattern1_whatsapp_desktop_logo)" d="M0 0h38.76v39H0z"/><path d="M1.267 37.614l2.572-9.408a18.217 18.217 0 01-2.406-9.076C1.414 9.094 9.515.943 19.472.943c4.831 0 9.368 1.885 12.785 5.323 3.417 3.438 5.29 8.003 5.29 12.864 0 10.018-8.1 18.17-18.057 18.17a17.82 17.82 0 01-8.633-2.218l-9.59 2.532zM11.28 31.81l.551.333a14.955 14.955 0 007.642 2.107c8.266 0 15.008-6.784 15.008-15.101 0-4.03-1.561-7.837-4.39-10.684C27.26 5.62 23.476 4.03 19.471 4.03c-8.285 0-15.027 6.784-15.027 15.101 0 2.847.79 5.638 2.297 8.04l.349.574-1.525 5.582 5.713-1.516z" fill="#fff"/><path d="M1.892 36.985l2.48-9.093a17.608 17.608 0 01-2.333-8.762c0-9.666 7.826-17.54 17.433-17.54 4.666 0 9.038 1.83 12.344 5.138a17.506 17.506 0 015.107 12.402c0 9.667-7.825 17.541-17.433 17.541-2.92 0-5.786-.74-8.34-2.144l-9.258 2.458z" fill="url(#paint0_linear_whatsapp_desktop_logo)"/><path fill="url(#pattern2_whatsapp_desktop_logo)" d="M0 0h38.76v39H0z"/><path d="M1.267 37.614l2.572-9.408a18.217 18.217 0 01-2.406-9.076C1.414 9.094 9.515.943 19.472.943c4.831 0 9.368 1.885 12.785 5.323 3.417 3.438 5.29 8.003 5.29 12.864 0 10.018-8.1 18.17-18.057 18.17a17.82 17.82 0 01-8.633-2.218l-9.59 2.532zM11.28 31.81l.551.333a14.955 14.955 0 007.642 2.107c8.266 0 15.008-6.784 15.008-15.101 0-4.03-1.561-7.837-4.39-10.684C27.26 5.62 23.476 4.03 19.471 4.03c-8.285 0-15.027 6.784-15.027 15.101 0 2.847.79 5.638 2.297 8.04l.349.574-1.525 5.582 5.713-1.516z" fill="url(#paint1_linear_whatsapp_desktop_logo)"/><path fill="url(#pattern3_whatsapp_desktop_logo)" d="M8.634 9.242H30.31v20.517H8.634z"/><path fill-rule="evenodd" clip-rule="evenodd" d="M14.971 11.515c-.33-.758-.698-.776-1.01-.776-.276-.019-.57-.019-.882-.019-.294 0-.79.111-1.212.573-.423.462-1.58 1.553-1.58 3.79 0 2.236 1.617 4.399 1.837 4.694.22.296 3.123 5.028 7.715 6.858 3.821 1.515 4.593 1.22 5.42 1.127.826-.092 2.663-1.09 3.049-2.163.367-1.053.367-1.977.257-2.162-.11-.185-.423-.296-.864-.536-.459-.222-2.663-1.33-3.086-1.479-.422-.148-.716-.222-1.01.222-.294.462-1.157 1.479-1.433 1.774-.257.296-.532.333-.973.111-.46-.221-1.91-.702-3.638-2.255-1.34-1.201-2.24-2.698-2.516-3.142-.257-.462-.037-.702.202-.924.202-.203.46-.536.68-.795.22-.259.293-.462.459-.758.147-.295.073-.573-.037-.794-.11-.204-.974-2.44-1.378-3.346z" fill="#fff"/><defs><pattern id="pattern0_whatsapp_desktop_logo" patternContentUnits="objectBoundingBox" width="1" height="1"><use xlink:href="#image0"/></pattern><pattern id="pattern1_whatsapp_desktop_logo" patternContentUnits="objectBoundingBox" width="1" height="1"><use xlink:href="#image1"/></pattern><pattern id="pattern2_whatsapp_desktop_logo" patternContentUnits="objectBoundingBox" width="1" height="1"><use xlink:href="#image1"/></pattern><pattern id="pattern3_whatsapp_desktop_logo" patternContentUnits="objectBoundingBox" width="1" height="1"><use xlink:href="#image2"/></pattern><linearGradient id="paint0_linear_whatsapp_desktop_logo" x1="19.404" y1="36.983" x2="19.404" y2="1.583" gradientUnits="userSpaceOnUse"><stop stop-color="#20B038"/><stop offset="1" stop-color="#60D66A"/></linearGradient><linearGradient id="paint1_linear_whatsapp_desktop_logo" x1="19.404" y1="37.618" x2="19.404" y2=".948" gradientUnits="userSpaceOnUse"><stop stop-color="#F9F9F9"/><stop offset="1" stop-color="#fff"/></linearGradient></defs></svg>
